<svg width="37" height="36" viewBox="0 0 37 36" fill="none" xmlns="http://www.w3.org/2000/svg">
<path d="M0.858704 4C0.858704 1.79086 2.64956 0 4.8587 0H32.8165C35.0256 0 36.8165 1.79086 36.8165 4V32C36.8165 34.2091 35.0256 36 32.8165 36H4.85871C2.64957 36 0.858704 34.2091 0.858704 32V4Z" fill="#496115" fill-opacity="0.1"/>
<path d="M17.8871 8.03044C16.5619 8.17099 15.5847 8.45878 14.3532 9.07453C11.5489 10.4733 9.62139 13.0166 8.98557 16.1623C8.80486 17.0792 8.81825 19.067 9.01903 19.9906C9.86903 23.9193 12.7603 26.8708 16.6288 27.761C17.9406 28.0622 19.5871 28.0822 20.9056 27.8011C21.5481 27.6673 22.6524 27.2925 23.1677 27.0315C26.0724 25.5791 27.9732 23.1429 28.6559 19.9839C28.8701 19.0067 28.8701 16.9989 28.6559 16.0217C28.4484 15.0512 28.2141 14.3887 27.7992 13.552C26.3736 10.6808 23.6898 8.68634 20.5307 8.13753C19.7945 8.01036 18.563 7.96351 17.8871 8.03044ZM17.365 12.8091C17.7064 13.03 17.9272 13.9268 17.9339 15.0713C17.9339 15.8544 17.8804 16.0083 17.5323 16.2426C17.0505 16.5638 16.7961 16.8048 16.7961 16.9386C16.7961 17.3469 17.9005 19.2878 18.4961 19.9236C18.9512 20.4122 19.0851 20.4189 19.7544 19.9571C20.3166 19.5689 20.4571 19.5422 21.026 19.7362C22.2374 20.1512 23.2213 20.9075 23.2213 21.4228C23.2213 22.0051 22.6323 22.8083 21.963 23.1362C21.615 23.3035 21.5213 23.3236 20.8453 23.3169C20.1693 23.3169 20.0556 23.2968 19.5067 23.0827C18.6902 22.7681 18.2284 22.4535 17.3918 21.6169C16.6221 20.854 15.8056 19.7028 15.3237 18.7055C14.9958 18.0363 14.621 16.9119 14.5139 16.3028C14.4068 15.6871 14.467 14.4355 14.6143 14.0875C14.7414 13.793 15.2367 13.2509 15.578 13.0367C16.1737 12.6686 16.9902 12.5682 17.365 12.8091Z" fill="url(#paint0_linear_78_548)"/>
<defs>
<linearGradient id="paint0_linear_78_548" x1="6.91044" y1="21.5166" x2="27.0621" y2="21.5166" gradientUnits="userSpaceOnUse">
<stop stop-color="#6A9113"/>
<stop offset="1" stop-color="#141517"/>
</linearGradient>
</defs>
</svg>
