<svg width="44" height="36" viewBox="0 0 44 36" fill="none" xmlns="http://www.w3.org/2000/svg">
<path d="M0.183472 4C0.183472 1.79086 1.97433 0 4.18347 0H39.8587C42.0679 0 43.8587 1.79086 43.8587 4V32C43.8587 34.2091 42.0679 36 39.8587 36H4.18347C1.97433 36 0.183472 34.2091 0.183472 32V4Z" fill="#496115" fill-opacity="0.1"/>
<path d="M9.28216 8.10188C9.19355 8.25379 21.371 20.3806 21.7761 20.5199C22.0419 20.6212 22.2318 20.6085 22.5356 20.4819C22.7635 20.3806 25.5737 17.6717 28.9535 14.2792C33.7384 9.48166 34.9283 8.22847 34.7764 8.1272C34.5486 7.9753 9.37077 7.94998 9.28216 8.10188Z" fill="url(#paint0_linear_78_537)"/>
<path d="M8.33277 8.98812C8.11757 9.39319 8.14289 26.7354 8.35808 27.0265C8.49733 27.2164 9.04164 26.71 13.1303 22.6213L17.7507 18.001L13.1177 13.368C8.85177 9.10205 8.45935 8.74761 8.33277 8.98812Z" fill="url(#paint1_linear_78_537)"/>
<path d="M31.0421 13.4441L26.4851 18.0011L31.0421 22.5582C34.1561 25.6722 35.6372 27.0646 35.7258 26.976C35.903 26.7988 35.903 9.20345 35.7258 9.02623C35.6372 8.93762 34.1561 10.3301 31.0421 13.4441Z" fill="url(#paint2_linear_78_537)"/>
<path d="M13.7253 23.2923C11.2316 25.786 9.23153 27.862 9.28216 27.9126C9.4214 28.0519 34.5612 28.0139 34.7764 27.8747C34.9283 27.7734 34.0422 26.8367 30.4725 23.2543C28.0041 20.7859 25.9281 18.7605 25.8648 18.7605C25.7889 18.7605 25.1433 19.3555 24.3964 20.077C22.966 21.4948 22.6242 21.672 21.6495 21.4821C21.2698 21.4188 20.9027 21.1277 19.8394 20.077C19.0925 19.3555 18.4469 18.7605 18.371 18.7605C18.3077 18.7605 16.219 20.7985 13.7253 23.2923Z" fill="url(#paint3_linear_78_537)"/>
<defs>
<linearGradient id="paint0_linear_78_537" x1="6.79168" y1="16.5069" x2="32.5467" y2="16.5069" gradientUnits="userSpaceOnUse">
<stop stop-color="#6A9113"/>
<stop offset="1" stop-color="#141517"/>
</linearGradient>
<linearGradient id="paint1_linear_78_537" x1="7.24953" y1="21.1832" x2="16.9097" y2="21.1832" gradientUnits="userSpaceOnUse">
<stop stop-color="#6A9113"/>
<stop offset="1" stop-color="#141517"/>
</linearGradient>
<linearGradient id="paint2_linear_78_537" x1="25.57" y1="21.1587" x2="35.0347" y2="21.1587" gradientUnits="userSpaceOnUse">
<stop stop-color="#6A9113"/>
<stop offset="1" stop-color="#141517"/>
</linearGradient>
<linearGradient id="paint3_linear_78_537" x1="6.79083" y1="25.0049" x2="32.55" y2="25.0049" gradientUnits="userSpaceOnUse">
<stop stop-color="#6A9113"/>
<stop offset="1" stop-color="#141517"/>
</linearGradient>
</defs>
</svg>
